<?xml version="1.0" encoding="utf-8"?>
<!-- Generator: Adobe Illustrator 20.1.0, SVG Export Plug-In . SVG Version: 6.00 Build 0)  -->
<svg version="1.1" id="Layer_1" xmlns="http://www.w3.org/2000/svg" xmlns:xlink="http://www.w3.org/1999/xlink" x="0px" y="0px"
	 viewBox="0 0 648.1 538" style="enable-background:new 0 0 648.1 538;" xml:space="preserve">
<style type="text/css">
	.st0{fill:#FFFFFF;}
</style>
<path d="M214.8,147.4c-12.5,0-22.7,10.2-22.7,22.7c0,12.5,10.2,22.7,22.7,22.7c12.5,0,22.7-10.2,22.7-22.7
	C237.5,157.5,227.3,147.4,214.8,147.4z M376.9,250.6c-10.9,6.3-14.6,20.2-8.3,31c6.3,10.9,20.1,14.6,31,8.3
	c10.9-6.3,14.6-20.1,8.3-31C401.7,248,387.8,244.3,376.9,250.6z M264.1,170.1c0-22.4,11.1-42.3,28.2-54.3L275.7,88
	c-19.9,13.3-34.6,33.6-40.8,57.3c7.2,5.8,11.8,14.8,11.8,24.7c0,10-4.6,18.9-11.8,24.7c6.1,23.8,20.9,44.1,40.8,57.3l16.6-27.8
	C275.3,212.3,264.1,192.5,264.1,170.1z M330.4,103.7c34.6,0,63.1,26.6,66.1,60.4l32.4-0.5c-1.6-25-12.5-47.5-29.3-64
	c-8.6,3.3-18.6,2.8-27.2-2.2c-8.6-5-14-13.4-15.5-22.5c-8.4-2.3-17.2-3.6-26.4-3.6c-15.7,0-30.5,3.7-43.7,10.2l15.8,28.3
	C311,106,320.5,103.7,330.4,103.7z M330.4,236.4c-10,0-19.5-2.2-27.9-6.2l-15.8,28.3c13.2,6.5,28,10.2,43.7,10.2
	c9.1,0,18-1.3,26.4-3.6c1.5-9.1,6.9-17.5,15.5-22.5c8.6-5,18.6-5.5,27.2-2.2c16.8-16.5,27.7-39,29.3-64l-32.4-0.5
	C393.5,209.8,365.1,236.4,330.4,236.4z M376.9,89.6c10.9,6.3,24.7,2.6,31-8.3c6.3-10.9,2.6-24.7-8.3-31c-10.9-6.3-24.7-2.5-31,8.3
	C362.3,69.4,366.1,83.3,376.9,89.6z"/>
<path class="st0" d="M90.7,532c-4.6,1.2-10.7,2.4-18.2,3.7c-7.6,1.3-16.3,1.9-26.2,1.9c-8.6,0-15.9-1.3-21.8-3.8
	c-5.9-2.5-10.6-6.1-14.2-10.7c-3.6-4.6-6.2-10-7.8-16.3C0.8,500.6,0,493.7,0,486.1v-63h20.1v58.7c0,13.7,2.2,23.5,6.5,29.4
	c4.3,5.9,11.6,8.9,21.8,8.9c2.2,0,4.4-0.1,6.7-0.2c2.3-0.1,4.5-0.3,6.5-0.5c2-0.2,3.8-0.4,5.5-0.6c1.7-0.2,2.8-0.5,3.6-0.8V423h20.1
	L90.7,532L90.7,532z"/>
<path class="st0" d="M139.6,428c2.4-1.6,6.1-3.2,11.1-5c5-1.7,10.7-2.6,17.2-2.6c8.1,0,15.2,1.4,21.5,4.3
	c6.3,2.9,11.5,6.9,15.9,12.1c4.3,5.2,7.6,11.4,9.8,18.6c2.2,7.2,3.3,15.1,3.3,23.7c0,9.1-1.3,17.2-4,24.5
	c-2.7,7.3-6.4,13.4-11.3,18.5c-4.9,5-10.8,8.9-17.7,11.7c-6.9,2.7-14.7,4.1-23.3,4.1c-9.4,0-17.6-0.6-24.8-1.9
	c-7.2-1.3-13.1-2.6-17.7-3.9V371.2l20.1-3.5L139.6,428L139.6,428z M139.6,517.8c2,0.6,4.9,1.1,8.5,1.6c3.7,0.5,8.2,0.8,13.7,0.8
	c10.8,0,19.4-3.6,25.9-10.7c6.5-7.1,9.7-17.2,9.7-30.3c0-5.8-0.6-11.1-1.7-16.2c-1.2-5-3-9.4-5.6-13.1c-2.6-3.7-5.9-6.5-10-8.6
	c-4.1-2.1-9-3.1-14.8-3.1c-5.5,0-10.5,0.9-15.1,2.8c-4.6,1.9-8.1,3.8-10.6,5.8L139.6,517.8L139.6,517.8z"/>
<path class="st0" d="M330.4,532c-4.6,1.2-10.7,2.4-18.2,3.7c-7.6,1.3-16.3,1.9-26.2,1.9c-8.6,0-15.9-1.3-21.8-3.8
	c-5.9-2.5-10.6-6.1-14.2-10.7c-3.6-4.6-6.2-10-7.8-16.3c-1.6-6.3-2.4-13.2-2.4-20.8v-63h20.1v58.7c0,13.7,2.2,23.5,6.5,29.4
	c4.3,5.9,11.6,8.9,21.8,8.9c2.2,0,4.4-0.1,6.7-0.2c2.3-0.1,4.5-0.3,6.5-0.5c2-0.2,3.8-0.4,5.5-0.6c1.7-0.2,2.8-0.5,3.6-0.8V423h20.1
	L330.4,532L330.4,532z"/>
<path class="st0" d="M359.4,426.3c4.6-1.1,10.7-2.4,18.3-3.7c7.6-1.3,16.4-1.9,26.3-1.9c8.9,0,16.3,1.3,22.2,3.8
	c5.9,2.5,10.6,6,14.1,10.6c3.5,4.5,6,10,7.4,16.3c1.4,6.3,2.2,13.3,2.2,20.9v63h-20.1v-58.7c0-6.9-0.5-12.8-1.4-17.7
	c-0.9-4.9-2.5-8.9-4.6-11.9c-2.2-3-5-5.2-8.6-6.6c-3.6-1.4-8.1-2.1-13.4-2.1c-2.2,0-4.4,0.1-6.7,0.2c-2.3,0.1-4.5,0.3-6.6,0.5
	c-2.1,0.2-4,0.5-5.6,0.8c-1.7,0.3-2.8,0.5-3.6,0.6v94.8h-20.1L359.4,426.3L359.4,426.3z"/>
<path class="st0" d="M496.4,423h42.5v16.8h-42.5v51.8c0,5.6,0.4,10.3,1.3,13.9c0.9,3.7,2.2,6.5,3.9,8.6c1.7,2.1,3.9,3.6,6.5,4.4
	c2.6,0.9,5.6,1.3,9.1,1.3c6.2,0,11.1-0.7,14.7-2.1c3.6-1.4,6-2.3,7.3-2.9l4.3,16.4c-2,1-5.6,2.3-10.7,3.9
	c-5.1,1.6-10.9,2.4-17.4,2.4c-7.6,0-13.9-1-18.9-2.9c-5-1.9-9-4.9-12-8.7s-5.1-8.7-6.4-14.4c-1.2-5.7-1.8-12.3-1.8-19.7V391.7
	l20.1-3.5L496.4,423L496.4,423z"/>
<path class="st0" d="M648.1,532c-4.6,1.2-10.7,2.4-18.2,3.7c-7.6,1.3-16.3,1.9-26.2,1.9c-8.6,0-15.9-1.3-21.8-3.8
	c-5.9-2.5-10.6-6.1-14.2-10.7c-3.6-4.6-6.2-10-7.8-16.3c-1.6-6.3-2.4-13.2-2.4-20.8v-63h20.1v58.7c0,13.7,2.2,23.5,6.5,29.4
	c4.3,5.9,11.6,8.9,21.8,8.9c2.2,0,4.4-0.1,6.7-0.2c2.3-0.1,4.5-0.3,6.5-0.5c2-0.2,3.8-0.4,5.5-0.6c1.7-0.2,2.8-0.5,3.6-0.8V423h20.1
	L648.1,532L648.1,532z"/>
</svg>
